<?xml version="1.0" encoding="UTF-8" standalone="no"?>
<!-- Created with Inkscape (http://www.inkscape.org/) -->

<svg
   version="1.1"
   id="svg2"
   xml:space="preserve"
   width="1810.1866"
   height="672.30664"
   viewBox="0 0 1810.1866 672.30664"
   sodipodi:docname="CarletonLogo.eps"
   xmlns:inkscape="http://www.inkscape.org/namespaces/inkscape"
   xmlns:sodipodi="http://sodipodi.sourceforge.net/DTD/sodipodi-0.dtd"
   xmlns="http://www.w3.org/2000/svg"
   xmlns:svg="http://www.w3.org/2000/svg"><defs
     id="defs6" /><sodipodi:namedview
     id="namedview4"
     pagecolor="#ffffff"
     bordercolor="#666666"
     borderopacity="1.0"
     inkscape:pageshadow="2"
     inkscape:pageopacity="0.0"
     inkscape:pagecheckerboard="0" /><g
     id="g8"
     inkscape:groupmode="layer"
     inkscape:label="ink_ext_XXXXXX"
     transform="matrix(1.3333333,0,0,-1.3333333,0,672.30667)"><g
       id="g10"
       transform="scale(0.1)"><path
         d="m 2931.13,3938.07 -584.75,-630.61 252.8,1103.08 -336.67,-178.23 -252.45,686.65 -252.45,-686.65 -336.66,178.23 252.79,-1103.08 -597.22,644.06 -38.8,-281.23 -489.693,142.82 226,-534.17 -207.461,-56.59 699.844,-522.57 c 796.19,307.1 1295.65,217.89 1588.32,99.24 -43.07,-168.16 -106.78,-324.53 -190.91,-468.89 -23.56,12.93 -48.27,25.44 -74.48,37.33 -101.71,46.11 -223.93,83.52 -370.95,105.33 -56.55,8.39 -116.91,14.36 -181,17.76 -17.87,0.94 -36.05,1.68 -54.53,2.2 -35.19,0.99 -71.51,1.18 -108.96,0.53 -165.32,-2.85 -352.77,-22.03 -565.77,-62.89 -8.03,-1.54 -15.85,-2.83 -23.79,-4.27 -38.7,-7.03 -76.4,-12.92 -113.14,-17.72 -534.747,-69.94 -864.817,88.4 -1062.731,268.99 -20.5706,59.19 -38.2229,119.19 -52.7932,179.99 C 254.086,2650.34 603.73,2468.94 1183.26,2669.29 l -782.928,584.62 272.32,74.26 -253.781,599.88 557.113,-162.5 48.446,351.22 515.03,-555.41 -227.01,990.55 404.83,-214.33 246.8,671.26 c 32.45,-4.27 64.81,-8.95 97.11,-13.99 l 241.65,-657.27 404.82,214.33 -226.99,-990.55 450.88,486.25 -0.42,-109.54"
         style="fill:#ffffff;fill-opacity:1;fill-rule:nonzero;stroke:none"
         id="path12" /><path
         d="m 1181.26,2284.02 c -551.526,-44.08 -862.44,109.74 -1037.811,300.23 28.414,-69.91 60.981,-138.65 97.828,-206.15 1.934,-3.55 3.957,-6.98 5.907,-10.51 164.25,-120.56 440.164,-234.99 903.776,-272.51 486.68,-39.39 806.85,-170.44 1017.37,-320.56 127.35,98.27 238.94,206.21 334.63,323.64 -238.31,135.87 -641.23,240.26 -1321.7,185.86"
         style="fill:#ffffff;fill-opacity:1;fill-rule:nonzero;stroke:none"
         id="path14" /><path
         d="M 247.184,2367.59 C 510.426,1891.64 933.395,1622 1422.25,1409.35 c 29.03,-12.63 60.62,-13.29 89.49,0 143.35,66.42 302.59,132.61 436.92,214.45 77.74,47.44 150.96,97.7 219.67,150.72 -210.52,150.12 -530.69,281.17 -1017.37,320.56 -463.612,37.52 -739.526,151.95 -903.776,272.51"
         style="fill:#231f20;fill-opacity:1;fill-rule:nonzero;stroke:none"
         id="path16" /><path
         d="m 1308.13,2430.39 c -616.161,-118.18 -985.317,51.25 -1199.595,246.81 10.848,-31.2 22.414,-62.21 34.914,-92.95 175.371,-190.49 486.285,-344.31 1037.811,-300.23 680.47,54.4 1083.39,-49.99 1321.7,-185.86 59.99,73.62 113.68,151 160.96,232.16 -260.85,143.22 -681.33,229.44 -1355.79,100.07"
         style="fill:#231f20;fill-opacity:1;fill-rule:nonzero;stroke:none"
         id="path18" /><path
         d="m 2707.66,4551.91 -226.99,-990.55 450.88,486.25 c 0.59,220.94 0.23,441.89 2.33,662.75 0.49,40.19 -9.02,62.66 -51.33,77.09 -268.76,92.2 -542.17,163.83 -821.36,207.4 l 241.65,-657.27 404.82,214.33"
         style="fill:#231f20;fill-opacity:1;fill-rule:nonzero;stroke:none"
         id="path20" /><path
         d="m 1183.26,2669.29 -782.928,584.62 272.32,74.26 -253.781,599.88 557.113,-162.5 48.446,351.22 515.03,-555.41 -227.01,990.55 404.83,-214.33 246.8,671.26 c -67.78,8.93 -135.88,16.25 -204.37,21.68 C 1179.93,5076.44 618.184,4985.41 70.543,4794.99 17.5664,4776.46 -0.640625,4752.84 0.015625,4696.59 3.13281,4448.11 2.96875,3950.82 2.96875,3950.82 c 0,-224.04 -2.296875,-448.08 0.49219,-672.13 C 5.3125,3134.3 22.9805,2993.77 55.7148,2857.22 254.094,2650.14 603.793,2468.96 1183.26,2669.29"
         style="fill:#231f20;fill-opacity:1;fill-rule:nonzero;stroke:none"
         id="path22" /><path
         d="m 2854.86,2798.97 c 37.07,144.92 58.83,298.58 64.59,461.19 8.05,225.84 10.65,451.85 11.68,677.91 l -584.75,-630.61 252.8,1103.08 -336.67,-178.23 -252.45,686.65 -252.45,-686.65 -336.66,178.23 252.79,-1103.08 -597.22,644.06 -38.8,-281.23 -489.693,142.82 226,-534.17 -207.461,-56.59 699.844,-522.57 c 796.3,307.14 1295.8,217.86 1588.45,99.19"
         style="fill:#ed1c24;fill-opacity:1;fill-rule:nonzero;stroke:none"
         id="path24" /><path
         d="m 5295.06,4385.47 -274.47,-0.8 -38.65,245.23 c -36.38,36.15 -82.22,64.69 -137.49,85.62 -55.28,20.89 -120.46,31.27 -195.5,31.05 -160.22,-0.48 -283.36,-59.02 -369.44,-175.64 -86.09,-116.63 -128.84,-268.53 -128.3,-455.71 l 0.19,-64.51 c 0.56,-187.18 44.01,-339.26 130.36,-456.18 86.36,-117.01 207.95,-175.22 364.79,-174.74 72.51,0.17 138.88,10.93 199.11,32.19 60.21,21.22 106.73,50.04 139.5,86.42 l 37.23,245.49 274.46,0.8 1.08,-364.25 c -73.97,-86.25 -168.41,-154.99 -283.34,-206.37 -114.96,-51.33 -243.68,-77.26 -386.18,-77.69 -247.05,-0.73 -449.68,84.26 -607.87,254.98 -158.17,170.72 -237.67,390.11 -238.45,658.27 l -0.19,61.96 c -0.78,267.29 77,487.18 233.3,659.65 156.34,172.49 358.86,259.08 607.61,259.82 142.48,0.43 271.16,-25.11 385.99,-76.65 114.8,-51.51 209.89,-119.74 285.18,-204.69 l 1.08,-364.25"
         style="fill:#231f20;fill-opacity:1;fill-rule:nonzero;stroke:none"
         id="path26" /><path
         d="m 5984.76,3406.16 c 54.11,0.16 103.3,11.97 147.51,35.47 44.22,23.53 78.57,52.95 103.08,88.3 l -0.61,202.99 -183.31,-0.55 c -76.26,-0.25 -134.02,-18.28 -173.3,-54 -39.25,-35.81 -58.81,-78.76 -58.67,-128.77 0.15,-45.14 14.8,-80.32 44,-105.66 29.17,-25.34 69.62,-37.95 121.3,-37.78 z m 311.95,-238.97 c -9.92,22.1 -18.6,44.84 -26.04,68.21 -7.46,23.37 -13.28,46.86 -17.44,70.69 -42.51,-49.34 -94.27,-89.31 -155.27,-119.82 -61.01,-30.47 -130.88,-45.9 -209.61,-46.15 -130.39,-0.38 -234.06,34.8 -310.94,105.49 -76.92,70.73 -115.52,167.19 -115.9,289.4 -0.35,124.66 49.39,221.15 149.24,289.53 99.86,68.38 246.56,102.84 440.12,103.43 l 183.3,0.55 -0.4,130.41 c -0.19,63.96 -18.79,113.51 -55.79,148.67 -37.01,35.15 -91.6,52.64 -163.76,52.43 -41.02,-0.13 -77.5,-4.98 -109.46,-14.5 -31.96,-9.52 -57.77,-20.89 -77.4,-34.07 l -22.96,-142.76 -270.64,-0.8 0.36,295.26 c 65.48,44.47 140.62,82.02 225.41,112.62 84.79,30.57 177.21,46.04 277.28,46.33 164.85,0.48 298.83,-39.52 402.01,-119.97 103.16,-80.5 154.98,-195.38 155.42,-344.64 l 1.62,-549.89 c 0.06,-20.51 0.31,-39.8 0.8,-57.83 0.44,-18.03 1.93,-35.26 4.45,-51.65 l 109.52,-14.46 0.66,-215.26 -414.58,-1.22"
         style="fill:#231f20;fill-opacity:1;fill-rule:nonzero;stroke:none"
         id="path28" /><path
         d="m 6836.48,3384.13 172.12,37.45 -2.44,825.44 -190.78,36.36 -0.65,216.5 525.3,1.55 16.56,-194.31 c 30.95,68.97 71,122.81 120.09,161.51 49.09,38.69 106.04,58.12 170.82,58.32 18.87,0.06 38.75,-1.33 59.68,-4.15 20.93,-2.81 38.35,-6.24 52.32,-10.27 l -37.17,-327.37 -147.64,3.27 c -52.49,-0.16 -95.93,-10.57 -130.31,-31.16 -34.4,-20.61 -60.56,-49.78 -78.48,-87.59 l 1.91,-647.05 172.35,-36.44 0.63,-215.26 -703.66,-2.06 -0.65,215.26"
         style="fill:#231f20;fill-opacity:1;fill-rule:nonzero;stroke:none"
         id="path30" /><path
         d="m 7805.88,4824.11 -0.65,216.52 551.13,1.62 4.94,-1616.8 173.57,-36.44 0.63,-215.27 -706.13,-2.06 -0.65,215.27 173.35,37.45 -4.19,1363.37 -192,36.34"
         style="fill:#231f20;fill-opacity:1;fill-rule:nonzero;stroke:none"
         id="path32" /><path
         d="m 9246.08,4254.77 c -66.43,-0.18 -118.86,-25.76 -157.25,-76.74 -38.39,-50.96 -61.99,-117.84 -70.75,-200.72 l 3.7,-6.12 440.4,1.31 -0.08,31.98 c -0.23,76.24 -18.24,137.09 -54.05,182.5 -35.81,45.41 -89.81,68.02 -161.97,67.79 z m 0.02,-1104.65 c -191.92,-0.54 -345.49,60.52 -460.65,183.2 -115.19,122.68 -173.07,278.77 -173.61,468.19 l -0.15,49.21 c -0.59,197.66 53.25,360.64 161.55,488.89 108.29,128.24 253.87,192.25 436.78,191.96 179.6,0.54 319.17,-53.19 418.74,-161.16 99.54,-107.95 149.61,-254.2 150.16,-438.74 l 0.57,-195.6 -794.7,-2.35 -2.46,-7.36 c 6.83,-87.75 36.36,-159.83 88.62,-216.27 52.24,-56.44 123.05,-84.52 212.44,-84.27 79.56,0.26 145.57,8.41 198,24.59 52.45,16.14 109.77,41.52 172.01,76.15 l 97.84,-221.14 c -54.82,-43.63 -125.85,-80.32 -213.12,-110.12 -87.25,-29.75 -184.6,-44.84 -292.02,-45.18"
         style="fill:#231f20;fill-opacity:1;fill-rule:nonzero;stroke:none"
         id="path34" /><path
         d="m 10370.5,4868.61 0.9,-357.89 233.8,0.69 0.7,-252.18 -233.7,-0.69 2,-677.89 c 0.1,-51.65 10.9,-88.51 32.3,-110.57 21.4,-22.11 50.1,-33.08 86.2,-32.95 24.6,0.04 46.2,1.13 64.6,3.24 18.5,2.1 39.1,5.67 62.1,10.67 l 31.5,-259.52 c -40.1,-12.4 -79.9,-21.77 -119.2,-28.03 -39.4,-6.26 -82,-9.46 -127.9,-9.63 -123.9,-0.33 -219.3,33.42 -286.4,101.29 -67,67.88 -100.8,175.63 -101.2,323.23 l -2,679.08 -124.93,-0.56 -0.75,252.18 124.98,0.57 -1,357.89 358,1.07"
         style="fill:#231f20;fill-opacity:1;fill-rule:nonzero;stroke:none"
         id="path36" /><path
         d="m 11082.6,3833.83 c 0.3,-121.38 21.9,-218.76 64.8,-292.01 42.9,-73.3 111.9,-109.78 207,-109.48 92.7,0.29 160.4,37.36 203.3,111.33 42.8,73.93 64.1,171.18 63.7,291.75 l -0.1,25.85 c -0.3,118.1 -22.4,214.36 -66,288.9 -43.7,74.49 -112.3,111.6 -205.8,111.33 -93.5,-0.27 -161.5,-37.8 -203.9,-112.55 -42.4,-74.79 -63.5,-171.18 -63.1,-289.28 z m -359.3,24.77 c -0.6,198.45 54.5,361.21 165.2,488.26 110.8,127.02 264.2,190.84 460.2,191.43 196.8,0.57 351,-62.14 462.5,-188.07 111.5,-126 167.5,-288.65 168.1,-487.9 l 0.1,-25.85 c 0.6,-200.13 -54.5,-363.28 -165.3,-489.53 -110.7,-126.17 -263.7,-189.59 -458.9,-190.18 -197.6,-0.58 -352.2,61.91 -463.7,187.45 -111.5,125.62 -167.6,288.43 -168.2,488.55 v 25.84"
         style="fill:#231f20;fill-opacity:1;fill-rule:nonzero;stroke:none"
         id="path38" /><path
         d="m 12071.2,3400.15 172.1,37.44 -2.4,825.45 -190.8,36.35 -0.7,216.5 525.3,1.56 16.6,-190.64 c 44.1,68.19 98.4,121.27 163.1,159.18 64.7,37.91 137.2,56.99 217.6,57.24 134.5,0.4 239.6,-41.54 315.3,-125.79 75.7,-84.24 113.8,-216.59 114.4,-397.03 l 1.7,-579.37 172.3,-36.44 0.7,-215.26 -686.5,-2.06 -0.6,215.26 153.6,37.41 -1.7,578.17 c -0.2,89.39 -18.5,152.7 -54.7,189.92 -36.2,37.21 -90.8,55.71 -163.8,55.5 -47.5,-0.15 -90.1,-9.92 -127.8,-29.29 -37.7,-19.4 -69.2,-46.76 -94.5,-82.11 l 2.1,-713.5 145.3,-36.52 0.6,-215.26 -676.6,-1.98 -0.6,215.27"
         style="fill:#231f20;fill-opacity:1;fill-rule:nonzero;stroke:none"
         id="path40" /><path
         d="m 4243.48,2666.69 0.35,-120.36 -106.63,-20.87 1.54,-519.81 c 0.19,-65.69 18,-114.75 53.43,-147.27 35.44,-32.47 83.94,-48.59 145.49,-48.4 62.47,0.16 111.43,16.47 146.91,48.99 35.47,32.43 53.11,81.77 52.92,147.89 l -1.54,519.8 -106.08,20.21 -0.35,120.37 412.42,1.2 0.35,-120.36 -106.63,-20.83 1.54,-519.81 c 0.33,-111.71 -36.24,-198.04 -109.7,-258.87 -73.46,-60.86 -169.93,-91.46 -289.38,-91.81 -119.01,-0.39 -215.19,29.67 -288.56,90.1 -73.36,60.4 -110.2,146.49 -110.53,258.21 l -1.54,519.8 -106.08,20.21 -0.35,120.36 106.01,0.32 199.71,0.58 106.7,0.35"
         style="fill:#231f20;fill-opacity:1;fill-rule:nonzero;stroke:none"
         id="path42" /><path
         d="m 4897.19,1792.46 95.69,20.79 -1.36,458.91 -106.07,20.21 -0.35,120.4 292.05,0.85 9.21,-105.99 c 24.5,37.93 54.73,67.4 90.7,88.51 35.96,21.1 76.27,31.7 120.96,31.81 74.77,0.24 133.21,-23.09 175.31,-69.89 42.07,-46.85 63.26,-120.44 63.57,-220.75 l 0.95,-322.15 95.81,-20.21 0.35,-119.7 -381.64,-1.13 -0.35,119.7 85.44,20.76 -0.96,321.44 c -0.14,49.69 -10.29,84.89 -30.41,105.61 -20.12,20.63 -50.47,30.95 -91.05,30.84 -26.45,-0.08 -50.15,-5.53 -71.09,-16.32 -20.94,-10.75 -38.46,-25.97 -52.52,-45.64 l 1.18,-396.67 80.76,-20.25 0.35,-119.7 -376.18,-1.13 -0.35,119.7"
         style="fill:#231f20;fill-opacity:1;fill-rule:nonzero;stroke:none"
         id="path44" /><path
         d="m 6084.91,2593.45 -199.72,-0.59 -0.44,149.8 199.72,0.59 z m -293.79,-798.34 96.37,20.79 -1.36,458.9 -106.75,20.21 -0.35,120.4 306.41,0.9 1.77,-599.82 95.81,-20.21 0.35,-119.7 -391.9,-1.17 -0.35,119.7"
         style="fill:#231f20;fill-opacity:1;fill-rule:nonzero;stroke:none"
         id="path46" /><path
         d="m 6530.47,2297.35 -69.73,-13.2 98.79,-330.75 13.2,-69.71 h 4.11 l 14.15,69.78 95.45,330.64 -71.16,13.47 -0.35,120.4 335.82,1.02 0.35,-120.4 -64.26,-10.44 -216.38,-610.07 -190.82,-0.54 -220.67,608.74 -64.32,10.05 -0.35,120.4 335.82,1.01 0.35,-120.4"
         style="fill:#231f20;fill-opacity:1;fill-rule:nonzero;stroke:none"
         id="path48" /><path
         d="m 7311.72,2279.9 c -36.94,-0.11 -66.08,-14.33 -87.42,-42.63 -21.35,-28.35 -34.46,-65.54 -39.34,-111.61 l 2.06,-3.42 244.85,0.7 -0.05,17.79 c -0.12,42.41 -10.15,76.25 -30.05,101.48 -19.9,25.27 -49.94,37.81 -90.05,37.69 z m 19.6,-614.11 c -106.69,-0.31 -192.08,33.6 -256.1,101.83 -64.05,68.18 -96.22,154.98 -96.53,260.31 l -0.08,27.33 c -0.32,109.89 29.61,200.5 89.82,271.84 60.2,71.26 141.15,106.89 242.83,106.69 99.86,0.31 177.46,-29.55 232.82,-89.56 55.34,-60.04 83.17,-141.35 83.47,-243.95 l 0.33,-108.76 -441.84,-1.29 -1.35,-4.09 c 3.78,-48.79 20.2,-88.89 49.25,-120.24 29.04,-31.39 68.42,-47 118.13,-46.84 44.21,0.15 80.91,4.67 110.07,13.66 29.15,8.96 61.03,23.09 95.62,42.33 l 54.41,-122.93 c -30.49,-24.26 -69.98,-44.67 -118.49,-61.25 -48.51,-16.55 -102.64,-24.93 -162.36,-25.08"
         style="fill:#231f20;fill-opacity:1;fill-rule:nonzero;stroke:none"
         id="path50" /><path
         d="m 7707.21,1801.07 95.69,20.79 -1.36,458.9 -106.07,20.21 -0.35,120.4 292.04,0.86 9.2,-108.02 c 17.22,38.32 39.48,68.26 66.77,89.79 27.3,21.5 58.95,32.29 94.98,32.4 10.48,0.04 21.55,-0.74 33.17,-2.3 11.64,-1.59 21.32,-3.46 29.09,-5.72 l -20.67,-182 -82.07,1.83 c -29.19,-0.08 -53.34,-5.88 -72.45,-17.33 -19.12,-11.45 -33.67,-27.69 -43.64,-48.67 l 1.07,-359.77 95.81,-20.25 0.35,-119.7 -391.21,-1.13 -0.35,119.71"
         style="fill:#231f20;fill-opacity:1;fill-rule:nonzero;stroke:none"
         id="path52" /><path
         d="m 8853.91,2170.45 -134.06,-0.39 -21.48,92.24 c -13.71,10.91 -30.94,19.98 -51.72,27.22 -20.77,7.25 -43.7,10.83 -68.77,10.75 -35.11,-0.12 -62.89,-8.06 -83.36,-23.83 -20.48,-15.81 -30.68,-35.59 -30.61,-59.31 0.07,-22.35 9.93,-40.88 29.57,-55.6 19.65,-14.8 58.91,-27.8 117.76,-38.98 91.71,-17.99 159.73,-44.59 204.06,-79.79 44.32,-35.24 66.59,-83.83 66.77,-145.83 0.2,-66.58 -28.26,-121.02 -85.35,-163.35 -57.11,-42.36 -132.39,-63.66 -225.85,-63.97 -57.01,-0.16 -109.37,8.02 -157.06,24.53 -47.7,16.51 -90.04,40.18 -127.08,71.1 l -2.54,166.19 139.52,0.39 27.65,-96.37 c 11.88,-9.97 28.1,-17.33 48.63,-22.08 20.54,-4.67 41.96,-7.05 64.31,-6.97 40.58,0.12 71.45,7.48 92.61,22.16 21.16,14.68 31.7,34.5 31.62,59.57 -0.06,21.89 -10.83,40.81 -32.31,56.7 -21.48,15.89 -60.96,29.91 -118.44,42.05 -87.15,17.53 -153,43.66 -197.56,78.43 -44.56,34.77 -66.93,82.2 -67.11,142.4 -0.18,61.99 25.2,115.53 76.13,160.63 50.93,45.05 123.61,67.71 217.99,67.98 57.45,0.2 111.84,-7.39 163.19,-22.74 51.34,-15.38 91.64,-35.08 120.89,-59.15 l 2.6,-183.98"
         style="fill:#231f20;fill-opacity:1;fill-rule:nonzero;stroke:none"
         id="path54" /><path
         d="m 9259.59,2603.22 -199.72,-0.58 -0.45,149.8 199.72,0.58 z m -293.8,-798.38 96.38,20.83 -1.37,458.91 -106.75,20.21 -0.35,120.4 306.41,0.89 1.78,-599.82 95.81,-20.25 0.35,-119.7 -391.91,-1.17 -0.35,119.7"
         style="fill:#231f20;fill-opacity:1;fill-rule:nonzero;stroke:none"
         id="path56" /><path
         d="m 9685.09,2608.67 0.55,-181.22 129.95,0.39 0.41,-140.23 -129.95,-0.39 1.12,-376.85 c 0.07,-28.74 6.07,-49.26 17.96,-61.53 11.89,-12.26 27.86,-18.38 47.93,-18.3 13.68,0.04 25.65,0.66 35.9,1.79 10.26,1.17 21.77,3.16 34.53,5.92 l 17.53,-144.27 c -22.33,-6.89 -44.43,-12.07 -66.31,-15.57 -21.87,-3.47 -45.58,-5.26 -71.11,-5.34 -68.86,-0.19 -121.92,18.58 -159.19,56.31 -37.28,37.73 -56.03,97.66 -56.27,179.7 l -1.12,377.56 -68.88,-0.35 -0.41,140.22 68.88,0.35 -0.55,181.23 199.03,0.58"
         style="fill:#231f20;fill-opacity:1;fill-rule:nonzero;stroke:none"
         id="path58" /><path
         d="m 10679.8,2309.97 -69.1,-10.44 -270.1,-721 c -21.2,-53.39 -49.7,-98.21 -85.4,-134.31 -35.7,-36.13 -89.6,-54.32 -161.6,-54.55 -16.9,-0.04 -32.7,1.28 -47.5,4.01 -14.9,2.69 -32.3,6.5 -52.39,11.45 l 22.79,145.79 c 6.4,-0.94 13,-1.79 19.9,-2.73 6.8,-0.85 12.7,-1.32 17.8,-1.32 33.2,0.11 58.7,8.29 76.5,24.53 17.7,16.24 31.3,36.49 40.9,60.63 l 22.4,56.15 -236.45,608.7 -69.11,10.75 -0.35,120.4 362.51,1.09 0.3,-120.4 -82.7,-13.94 102.1,-295.16 10.4,-53.31 4.1,-0.66 116,349.83 -83.5,13.43 -0.4,120.41 362.5,1.05 0.4,-120.4"
         style="fill:#231f20;fill-opacity:1;fill-rule:nonzero;stroke:none"
         id="path60" /><path
         d="m 4321.33,617.961 h -288.58 v -131.75 h 262.71 v -90.969 h -262.71 v -240.75 h -105.87 v 558.36 h 394.45 v -94.891"
         style="fill:#100f0d;fill-opacity:1;fill-rule:nonzero;stroke:none"
         id="path62" /><path
         d="m 4507.98,215.66 c 29.27,0 53.98,8.231 74.11,24.699 20.11,16.473 30.19,41.172 30.19,74.11 v 36.851 c -9.41,-8.371 -24.83,-13.851 -46.27,-16.461 l -53.33,-6.277 c -26.66,-3.133 -45.48,-9.41 -56.46,-18.82 -10.98,-9.41 -16.47,-22.481 -16.47,-39.211 0,-17.25 5.75,-30.719 17.26,-40.379 11.49,-9.692 28.48,-14.512 50.97,-14.512 z m 216.44,-61.168 h -98.81 c -5.23,9.406 -8.89,25.879 -10.97,49.399 -27.72,-39.211 -71.11,-58.809 -130.19,-58.809 -43.92,0 -79.2,10.578 -105.87,31.758 -26.66,21.172 -39.99,51.101 -39.99,89.789 0,74.23 51.76,116.32 155.27,126.262 l 61.18,5.488 c 19.86,2.609 34.36,7.312 43.52,14.121 9.14,6.781 13.72,17.512 13.72,32.148 0,16.723 -5.49,29.274 -16.46,37.641 -10.99,8.359 -30.08,12.543 -57.26,12.543 -28.76,0 -49.4,-4.703 -61.95,-14.113 -12.54,-9.41 -19.88,-26.149 -21.96,-50.188 h -97.24 c 5.75,92.008 66.39,138.02 181.94,138.02 112.39,0 168.61,-40.52 168.61,-121.551 V 231.34 c 0,-35.559 5.48,-61.168 16.46,-76.848"
         style="fill:#100f0d;fill-opacity:1;fill-rule:nonzero;stroke:none"
         id="path64" /><path
         d="m 4961.26,145.082 c -60.13,0 -108.5,19.207 -145.08,57.637 -36.6,38.422 -54.9,89.793 -54.9,154.101 0,64.301 18.16,115.668 54.51,154.09 36.33,38.43 84.81,57.641 145.47,57.641 52.8,0 95.92,-13.992 129.39,-41.949 33.45,-27.981 53.06,-65.75 58.82,-113.321 h -98.82 c -4.7,24.039 -15.03,42.211 -30.98,54.5 -15.94,12.278 -35.42,18.43 -58.41,18.43 -30.34,0 -54.39,-10.859 -72.15,-32.539 -17.79,-21.711 -26.66,-53.992 -26.66,-96.852 0,-42.879 9.01,-75.172 27.05,-96.851 18.04,-21.707 41.95,-32.547 71.76,-32.547 23.52,0 43.64,6.527 60.38,19.609 16.73,13.059 26.92,32.399 30.58,58.028 h 98.81 c -5.22,-49.149 -25.09,-88.11 -59.6,-116.848 -34.5,-28.762 -77.9,-43.129 -130.17,-43.129"
         style="fill:#100f0d;fill-opacity:1;fill-rule:nonzero;stroke:none"
         id="path66" /><path
         d="m 5470.2,559.141 h 98.81 V 154.492 h -95.67 v 58.817 c -30.85,-45.489 -73.21,-68.227 -127.04,-68.227 -42.88,0 -77.12,12.539 -102.74,37.637 -25.61,25.09 -38.43,61.172 -38.43,108.222 v 268.2 h 98.82 V 307.41 c 0,-51.238 25.35,-76.851 76.07,-76.851 24.04,0 45.09,8.632 63.13,25.882 18.04,17.25 27.05,42.598 27.05,76.071 v 226.629"
         style="fill:#100f0d;fill-opacity:1;fill-rule:nonzero;stroke:none"
         id="path68" /><path
         d="m 5649,154.492 v 558.36 h 98.82 V 154.492 H 5649"
         style="fill:#100f0d;fill-opacity:1;fill-rule:nonzero;stroke:none"
         id="path70" /><path
         d="m 6038.75,483.859 h -79.99 v -218.8 c 0,-13.067 3.53,-22.227 10.58,-27.45 7.06,-5.23 18.95,-7.839 35.69,-7.839 h 33.72 v -75.278 c -24.06,-2.09 -41.31,-3.14 -51.76,-3.14 -43.4,0 -75.28,8.097 -95.68,24.308 -20.39,16.199 -30.58,42.61 -30.58,79.211 v 228.988 h -62.74 v 75.282 h 62.74 V 676.77 h 98.03 V 559.141 h 79.99 v -75.282"
         style="fill:#100f0d;fill-opacity:1;fill-rule:nonzero;stroke:none"
         id="path72" /><path
         d="m 6361.05,559.141 h 103.52 L 6308.5,121.551 C 6292.29,76.5898 6271.38,45.0898 6245.77,27.0508 6220.14,9.01953 6183.03,0 6134.41,0 6118.2,0 6103.82,0.78125 6091.28,2.33984 V 79.9883 h 37.64 c 22.47,0 39.21,6.1523 50.19,18.4336 10.98,12.2891 16.47,27.8401 16.47,46.6601 0,18.816 -6.28,46 -18.83,81.559 l -117.62,332.5 h 106.65 l 32.94,-101.161 c 24.04,-76.339 45.49,-151.621 64.3,-225.859 17.25,64.309 38.94,139.328 65.09,225.07 l 32.94,101.95"
         style="fill:#100f0d;fill-opacity:1;fill-rule:nonzero;stroke:none"
         id="path74" /><path
         d="m 6863.71,226.641 c 32.41,0 58.03,11.23 76.85,33.718 18.82,22.473 28.24,54.621 28.24,96.461 0,41.809 -9.42,73.969 -28.24,96.45 -18.82,22.48 -44.44,33.722 -76.85,33.722 -32.93,0 -58.69,-11.242 -77.25,-33.722 -18.56,-22.481 -27.83,-54.641 -27.83,-96.45 0,-41.84 9.27,-73.988 27.83,-96.461 18.56,-22.488 44.32,-33.718 77.25,-33.718 z m 149,-23.922 c -37.65,-38.43 -87.31,-57.637 -149,-57.637 -61.69,0 -111.5,19.328 -149.4,58.027 -37.91,38.68 -56.85,89.911 -56.85,153.711 0,63.77 18.94,115.012 56.85,153.7 37.9,38.679 87.71,58.031 149.4,58.031 61.69,0 111.35,-19.211 149,-57.641 37.65,-38.422 56.47,-89.789 56.47,-154.09 0,-64.308 -18.82,-115.679 -56.47,-154.101"
         style="fill:#100f0d;fill-opacity:1;fill-rule:nonzero;stroke:none"
         id="path76" /><path
         d="m 7297.39,636.781 c -34,0 -50.98,-16.211 -50.98,-48.621 v -29.019 h 83.13 v -75.282 h -83.13 V 154.492 h -98.02 v 329.367 h -62.74 v 75.282 h 62.74 v 30.589 c 0,38.149 10.58,68.622 31.76,91.36 21.17,22.742 54.76,34.109 100.77,34.109 19.86,0 36.86,-0.789 50.97,-2.347 v -76.071 h -34.5"
         style="fill:#100f0d;fill-opacity:1;fill-rule:nonzero;stroke:none"
         id="path78" /><path
         d="m 7776.53,141.941 c -75.28,0 -133.85,16.86 -175.66,50.579 -41.84,33.73 -63.01,82.468 -63.53,146.261 h 104.31 c 0.5,-41.312 12.94,-70.191 37.24,-86.66 24.31,-16.461 57.9,-24.699 100.77,-24.699 36.6,0 64.56,6.918 83.92,20.777 19.34,13.852 29.01,33.852 29.01,59.992 0,21.957 -8.37,38.688 -25.09,50.188 -16.74,11.5 -46.54,21.691 -89.41,30.59 l -47.05,9.41 c -119.73,22.473 -179.58,78.941 -179.58,169.391 0,47.57 18.16,85.742 54.5,114.492 36.33,28.75 87.17,43.136 152.53,43.136 75.29,0 131.48,-15.957 168.61,-47.839 37.12,-31.899 56.71,-75.559 58.81,-130.969 h -102.73 c -2.09,31.371 -12.55,54.762 -31.37,70.191 -18.82,15.418 -49.4,23.141 -91.76,23.141 -32.92,0 -57.9,-6.152 -74.89,-18.43 -16.99,-12.293 -25.48,-29.16 -25.48,-50.594 0,-22.476 7.85,-39.726 23.53,-51.75 15.68,-12.027 44.17,-22.226 85.48,-30.578 l 48.62,-9.422 c 65.34,-13.066 112.53,-32.679 141.54,-58.808 29.03,-26.149 43.53,-61.699 43.53,-106.66 0,-54.891 -20,-97.239 -59.99,-127.039 -39.99,-29.801 -95.28,-44.7 -165.86,-44.7"
         style="fill:#100f0d;fill-opacity:1;fill-rule:nonzero;stroke:none"
         id="path80" /><path
         d="m 8253.33,145.082 c -60.13,0 -108.5,19.207 -145.08,57.637 -36.6,38.422 -54.9,89.793 -54.9,154.101 0,64.301 18.16,115.668 54.51,154.09 36.33,38.43 84.81,57.641 145.47,57.641 52.8,0 95.92,-13.992 129.39,-41.949 33.45,-27.981 53.06,-65.75 58.82,-113.321 h -98.82 c -4.7,24.039 -15.03,42.211 -30.98,54.5 -15.94,12.278 -35.42,18.43 -58.41,18.43 -30.34,0 -54.39,-10.859 -72.15,-32.539 -17.79,-21.711 -26.66,-53.992 -26.66,-96.852 0,-42.879 9.01,-75.172 27.05,-96.851 18.04,-21.707 41.95,-32.547 71.76,-32.547 23.52,0 43.64,6.527 60.38,19.609 16.73,13.059 26.92,32.399 30.58,58.028 h 98.81 c -5.22,-49.149 -25.09,-88.11 -59.6,-116.848 -34.5,-28.762 -77.9,-43.129 -130.17,-43.129"
         style="fill:#100f0d;fill-opacity:1;fill-rule:nonzero;stroke:none"
         id="path82" /><path
         d="m 8498,611.691 v 92.528 h 97.24 v -92.528 z m -0.79,-457.199 v 404.649 h 98.82 V 154.492 h -98.82"
         style="fill:#100f0d;fill-opacity:1;fill-rule:nonzero;stroke:none"
         id="path84" /><path
         d="m 8857.17,491.699 c -27.19,0 -49.67,-7.98 -67.45,-23.918 -17.77,-15.949 -29.01,-40.133 -33.72,-72.539 h 203.12 c -4.19,29.27 -15.04,52.668 -32.55,70.188 -17.52,17.511 -40.66,26.269 -69.4,26.269 z M 9057.93,349.762 V 326.23 h -302.71 c 3.65,-35.031 14.63,-61.171 32.94,-78.421 18.29,-17.25 42.34,-25.879 72.15,-25.879 45.48,0 76.33,19.34 92.54,58.031 h 94.88 c -10.46,-41.301 -32.42,-74.102 -65.87,-98.422 -33.47,-24.309 -74.25,-36.457 -122.34,-36.457 -60.13,0 -108.74,19.207 -145.86,57.637 -37.13,38.422 -55.69,89.793 -55.69,154.101 0,63.25 18.31,114.36 54.91,153.309 36.58,38.941 84.95,58.422 145.08,58.422 61.17,0 109.78,-20.129 145.85,-60.379 36.08,-40.262 54.12,-93.07 54.12,-158.41"
         style="fill:#100f0d;fill-opacity:1;fill-rule:nonzero;stroke:none"
         id="path86" /><path
         d="m 9343.38,568.551 c 43.38,0 77.9,-12.539 103.51,-37.641 25.62,-25.09 38.43,-61.172 38.43,-108.219 V 154.492 h -98.81 v 251.727 c 0,51.23 -25.36,76.851 -76.06,76.851 -24.06,0 -45.1,-8.621 -63.14,-25.879 -18.04,-17.25 -27.05,-42.609 -27.05,-76.07 V 154.492 h -98.82 v 404.649 h 95.68 v -58.032 c 30.32,44.961 72.41,67.442 126.26,67.442"
         style="fill:#100f0d;fill-opacity:1;fill-rule:nonzero;stroke:none"
         id="path88" /><path
         d="m 9747.24,145.082 c -60.12,0 -108.49,19.207 -145.08,57.637 -36.6,38.422 -54.9,89.793 -54.9,154.101 0,64.301 18.17,115.668 54.51,154.09 36.33,38.43 84.82,57.641 145.47,57.641 52.81,0 95.93,-13.992 129.4,-41.949 33.44,-27.981 53.05,-65.75 58.82,-113.321 h -98.82 c -4.7,24.039 -15.03,42.211 -30.98,54.5 -15.95,12.278 -35.42,18.43 -58.42,18.43 -30.33,0 -54.38,-10.859 -72.15,-32.539 -17.78,-21.711 -26.66,-53.992 -26.66,-96.852 0,-42.879 9.02,-75.172 27.05,-96.851 18.04,-21.707 41.96,-32.547 71.76,-32.547 23.53,0 43.65,6.527 60.38,19.609 16.73,13.059 26.93,32.399 30.59,58.028 h 98.81 c -5.23,-49.149 -25.09,-88.11 -59.6,-116.848 -34.5,-28.762 -77.9,-43.129 -130.18,-43.129"
         style="fill:#100f0d;fill-opacity:1;fill-rule:nonzero;stroke:none"
         id="path90" /><path
         d="m 10173.9,491.699 c -27.2,0 -49.7,-7.98 -67.5,-23.918 -17.8,-15.949 -29,-40.133 -33.7,-72.539 h 203.1 c -4.2,29.27 -15,52.668 -32.6,70.188 -17.5,17.511 -40.6,26.269 -69.3,26.269 z m 200.7,-141.937 V 326.23 h -302.7 c 3.7,-35.031 14.6,-61.171 32.9,-78.421 18.3,-17.25 42.4,-25.879 72.2,-25.879 45.5,0 76.3,19.34 92.5,58.031 h 94.9 c -10.4,-41.301 -32.4,-74.102 -65.9,-98.422 -33.4,-24.309 -74.2,-36.457 -122.3,-36.457 -60.1,0 -108.7,19.207 -145.9,57.637 -37.09,38.422 -55.65,89.793 -55.65,154.101 0,63.25 18.31,114.36 54.95,153.309 36.5,38.941 84.9,58.422 145,58.422 61.2,0 109.8,-20.129 145.9,-60.379 36.1,-40.262 54.1,-93.07 54.1,-158.41"
         style="fill:#100f0d;fill-opacity:1;fill-rule:nonzero;stroke:none"
         id="path92" /></g></g></svg>
